<svg xmlns="http://www.w3.org/2000/svg" width="52.6" height="57.902" viewBox="0 0 52.6 57.902"><defs><style>.a{fill:#fff;stroke:#fff;stroke-width:0.1px;}</style></defs><g transform="translate(0.05 -0.049)"><path class="a" d="M15.992,27.985H40.307a.992.992,0,0,0,0-1.985H15.992a.992.992,0,0,0,0,1.985Z" transform="translate(-7.557 -14.255)"/><path class="a" d="M15.992,39.985H40.307a.992.992,0,0,0,0-1.985H15.992a.992.992,0,0,0,0,1.985Z" transform="translate(-7.557 -20.834)"/><path class="a" d="M69.211,108.409a.989.989,0,0,0-.645.744l-.5,2.431-1.985-5.359a4.071,4.071,0,0,1-1.092-.1,2.6,2.6,0,0,1-.893.5l2.779,7.493c.4,1.042.992,1.191,1.389,1.191h.05a1.326,1.326,0,0,0,1.241-1.092v-.1l.6-3.027,2.481,2.035a.173.173,0,0,0,.1.05,1.42,1.42,0,0,0,1.687.1c.3-.2.695-.744.3-1.836L71.593,103a4.513,4.513,0,0,1-.893,1.042,3.164,3.164,0,0,1-.695.4l2.084,5.707L70.1,108.558A.939.939,0,0,0,69.211,108.409Z" transform="translate(-32.292 -57.405)"/><path class="a" d="M82.142,92.75a3.568,3.568,0,0,1-1.042.893l8.436,3.126a2.248,2.248,0,0,0,.794.149,1.183,1.183,0,0,0,.992-.447,1.285,1.285,0,0,0-.1-1.687.049.049,0,0,0-.05-.05l-2.035-2.481,3.027-.6h.1a1.278,1.278,0,0,0,1.092-1.241,1.555,1.555,0,0,0-1.191-1.439L84.623,86.2a8.029,8.029,0,0,1-.5.893,4.071,4.071,0,0,1,.1,1.092l5.359,1.985-2.431.5a.993.993,0,0,0-.794,1.141,1.763,1.763,0,0,0,.2.447l1.588,1.985-5.607-2.183A3.164,3.164,0,0,1,82.142,92.75Z" transform="translate(-40.857 -47.895)"/><path class="a" d="M15.992,52.035H34.849a3.075,3.075,0,0,1,1.489-.447h.248a3.621,3.621,0,0,1,1.737.447h.1a3.727,3.727,0,0,1,1.29-.248,2.929,2.929,0,0,1,.695.1.705.705,0,0,1,.3.1,1.007,1.007,0,0,0,.546-1.29.98.98,0,0,0-.893-.6H15.992a1,1,0,0,0-.992.992A.954.954,0,0,0,15.992,52.035Z" transform="translate(-7.557 -27.466)"/><path class="a" d="M15.992,64.985h9.23A3.223,3.223,0,0,1,26.661,63H15.992a.992.992,0,0,0,0,1.985Z" transform="translate(-7.557 -34.541)"/><path class="a" d="M15.992,76.985h7.046a3.422,3.422,0,0,1,.695-1.489c-.05-.149-.05-.347-.1-.5H15.992a.992.992,0,0,0,0,1.985Z" transform="translate(-7.557 -41.12)"/><path class="a" d="M15.992,89.985h8.287v-.1A3.639,3.639,0,0,1,23.237,88.1V88H15.992a.992.992,0,1,0,0,1.985Z" transform="translate(-7.557 -48.247)"/><path class="a" d="M15.992,101.985H28.3A3.463,3.463,0,0,1,26.363,100H15.992a.992.992,0,0,0,0,1.985Z" transform="translate(-7.557 -54.827)"/><path class="a" d="M31.708.226A1.106,1.106,0,0,0,31.063,0H3.275A3.31,3.31,0,0,0,0,3.3V54.505a3.31,3.31,0,0,0,3.275,3.3H33c-.1-.135-.149-.316-.248-.452L32.2,56H3.275a1.42,1.42,0,0,1-1.29-1.49V3.3a1.42,1.42,0,0,1,1.29-1.49h25.8V9.031a.954.954,0,0,0,.992.9H39.2v17.34a3.041,3.041,0,0,1,1.687,2.168l.3.135V7.677A.854.854,0,0,0,40.839,7Zm7.493,7.9H31.063V2.077L39.2,8.128Z" transform="translate(0 0.099)"/><path class="a" d="M59.577,66.776a2.048,2.048,0,0,0-1.191-1.29c0-.05-.1-.05-.149-.1,0-.05.05-.149.05-.2a1.752,1.752,0,0,0-.546-2.382,1.857,1.857,0,0,0-.893-.248c-.05,0-.149-.05-.2-.05v-.2a1.731,1.731,0,0,0-1.241-2.134,1.53,1.53,0,0,0-.943,0h-.2c0-.05-.05-.149-.05-.2a1.684,1.684,0,0,0-1.737-1.687,2.022,2.022,0,0,0-.893.248c-.05,0-.1.05-.2.05.05,0,.05-.1,0-.149a2.186,2.186,0,0,0-1.29-1.191,2.2,2.2,0,0,0-1.638.546c-.05.05-.1.05-.149.1l-.149-.149A2.106,2.106,0,0,0,46.576,57a2.467,2.467,0,0,0-1.439.992c-.05.05-.1.1-.1.149-.05-.05-.1-.05-.149-.1a2.141,2.141,0,0,0-1.737-.3,1.987,1.987,0,0,0-1.092,1.34c0,.05-.05.1-.1.2a.3.3,0,0,1-.2-.05,2.114,2.114,0,0,0-1.737.2,2.141,2.141,0,0,0-.695,1.588v.2h-.2a1.745,1.745,0,0,0-1.786,2.431.375.375,0,0,0,.05.2c-.05.05-.149.05-.2.1a1.737,1.737,0,0,0-1.439,1.985,1.888,1.888,0,0,0,.4.844c.05.05.05.1.1.149-.05.05-.1.1-.149.1a1.682,1.682,0,0,0-.794,2.283,1.65,1.65,0,0,0,.6.695l.149.149c-.05.05-.1.1-.1.149a1.727,1.727,0,0,0-.149,2.431,1.667,1.667,0,0,0,.794.5c.05.05.1.05.149.1,0,.05-.05.149-.05.2a1.751,1.751,0,0,0,.546,2.382,1.714,1.714,0,0,0,.893.248c.05,0,.149.05.2.05v.2a2.058,2.058,0,0,0,.447,1.687,2.1,2.1,0,0,0,1.687.447h.2c0,.05.05.149.05.2a2.063,2.063,0,0,0,.893,1.489,1.946,1.946,0,0,0,1.737-.05c.05,0,.1-.05.2-.05.05.05.05.1.1.149a2.185,2.185,0,0,0,1.29,1.191,2.2,2.2,0,0,0,1.638-.546c.05-.05.1-.05.149-.1l.149.149a2.326,2.326,0,0,0,1.439.794h.1a2,2,0,0,0,1.439-.992c.05-.05.1-.1.1-.149.05.05.1.05.149.1a1.725,1.725,0,0,0,2.431-.2,1.888,1.888,0,0,0,.4-.844c0-.05.05-.1.1-.2a.3.3,0,0,1,.2.05,1.708,1.708,0,0,0,2.283-.893,1.888,1.888,0,0,0,.149-.893v-.2h.2a1.745,1.745,0,0,0,1.786-2.431.375.375,0,0,0-.05-.2c.05-.05.149-.05.2-.1a1.737,1.737,0,0,0,1.439-1.985,1.888,1.888,0,0,0-.4-.844c-.05-.05-.05-.1-.1-.149.05-.05.1-.1.149-.1a1.682,1.682,0,0,0,.794-2.283,1.65,1.65,0,0,0-.6-.695l-.149-.149c.05-.05.1-.1.1-.149A2.008,2.008,0,0,0,59.577,66.776ZM57.642,70.15a1.867,1.867,0,0,0-.794,2.481,1.038,1.038,0,0,0,.2.3.049.049,0,0,0,.05.05h-.05a1.811,1.811,0,0,0-1.439,2.134.92.92,0,0,0,.1.347v.05h-.05A1.879,1.879,0,0,0,53.622,77.2v.4h-.05a2.073,2.073,0,0,0-1.538.1,2.273,2.273,0,0,0-.943,1.29v.05a.049.049,0,0,1-.05-.05,1.826,1.826,0,0,0-2.58.3c-.05.1-.149.2-.2.3a.049.049,0,0,1-.05.05l-.05-.05a2.153,2.153,0,0,0-1.34-.744h-.1a2.492,2.492,0,0,0-1.34.546.05.05,0,0,1-.1,0,2.223,2.223,0,0,0-1.092-1.141,2.088,2.088,0,0,0-1.538.149h-.05v-.05a2.146,2.146,0,0,0-.744-1.389,2.079,2.079,0,0,0-1.538-.3h-.05V76.6a2.341,2.341,0,0,0-.3-1.538,2.391,2.391,0,0,0-1.389-.744h-.05v-.05a1.8,1.8,0,0,0-.695-2.481l-.3-.149a.049.049,0,0,1-.05-.05l.05-.05a1.812,1.812,0,0,0,.05-2.58l-.248-.248a.05.05,0,0,1,0-.1,1.867,1.867,0,0,0,.794-2.481,1.038,1.038,0,0,0-.2-.3l-.05-.05h.05a1.811,1.811,0,0,0,1.439-2.134.92.92,0,0,0-.1-.347v-.05h.05a1.851,1.851,0,0,0,2.035-1.687v-.4h.05a2.35,2.35,0,0,0,1.538-.1,2.273,2.273,0,0,0,.943-1.29v-.05a.049.049,0,0,1,.05.05,2.366,2.366,0,0,0,1.538.347,2.333,2.333,0,0,0,1.241-.943.049.049,0,0,1,.05-.05l.05.05a1.823,1.823,0,0,0,2.779.2.05.05,0,0,1,.1,0,1.848,1.848,0,0,0,2.332,1.141l.3-.149h.05v.05a2.146,2.146,0,0,0,.744,1.389,2.079,2.079,0,0,0,1.538.3h.05v.05a2.341,2.341,0,0,0,.3,1.538,2.391,2.391,0,0,0,1.389.744h.05v.05a1.8,1.8,0,0,0,.695,2.481l.3.149a.05.05,0,0,1,0,.1,1.812,1.812,0,0,0-.05,2.58l.248.248v.1Z" transform="translate(-17.696 -30.741)"/><path class="a" d="M53.451,69h0A6.451,6.451,0,1,0,59.9,75.451,6.438,6.438,0,0,0,53.451,69Zm3.176,9.627a4.456,4.456,0,1,1,0-6.3A4.462,4.462,0,0,1,56.627,78.627Z" transform="translate(-23.678 -36.492)"/></g></svg>