<svg xmlns="http://www.w3.org/2000/svg" width="75.759" height="52" viewBox="0 0 75.759 52"><defs><style>.a{fill:#fff;fill-rule:evenodd;}</style></defs><path class="a" d="M64.544,29.948C61.89,28.234,48.4,19.559,41.112,15.2c-5.68-3.408-6.547-2.406-12.558,2.6-6.775,5.411-13.518-.7-9.3-4.916,1.188-1.188,4.74-4.6,4.74-4.6L12.733,4.781l1.828-2.293L26.272,6.114l4.089-3.852a1.357,1.357,0,0,1,.981-.351L55.766,3.139,63.077,0,64.44,2.355,56.53,5.742a1.289,1.289,0,0,1-.6.1L31.766,4.626C30.124,6.165,23.99,11.948,21.16,14.788c-1.91,1.91,2.313,3.8,5.67.929C34.461,9.367,35.969,8.953,43,13.177c7.1,4.286,19.27,12.093,22.606,14.241l8.768-7.838,1.384,2.386-8.53,7.642c.537,4.368-2.633,8.014-7.188,6.919a5.748,5.748,0,0,1-5.8,5.422,5.823,5.823,0,0,1-7.89,5.659,5.166,5.166,0,0,1-8.014,3.542L31.27,46.884,29.039,49.26a4.71,4.71,0,0,1-7.962-1.952,4.775,4.775,0,0,1-1.642.351,4.722,4.722,0,0,1-4.616-3.222A4.716,4.716,0,0,1,8.964,37.26a4.717,4.717,0,0,1-1.993-7.7l.372-.392L0,20.706l1.714-2.148,7.5,8.623,1.642-1.745a4.723,4.723,0,0,1,7.818,1.5,4.715,4.715,0,0,1,7.528,5.4,4.659,4.659,0,0,1,2.024,1.115A4.727,4.727,0,0,1,29.463,38.4a4.66,4.66,0,0,1,3.408,6.279l6.867,4.141a2.51,2.51,0,0,0,3.935-2.675l-7.528-4.523A1.351,1.351,0,0,1,37.539,39.3l8.892,5.37c2.778,1.673,5.5-.33,5.05-3.387-3.077-1.508-6.506-3.883-9.5-5.69a1.355,1.355,0,1,1,1.394-2.324l8.892,5.37c2.84,1.714,5.463-.413,5.05-3.367L45.3,28.348a1.346,1.346,0,1,1,1.343-2.334c1.787,1.033,12.155,6.661,12.847,7.415,2.923,1.663,5.577-.392,5.05-3.48ZM23.525,35.5l-5.7,6.072a2.009,2.009,0,0,0,2.923,2.757l5.721-6.093c1.776-1.91-1.27-4.5-2.943-2.737Zm-10.709-8.22L8.943,31.4a2.006,2.006,0,0,0,2.923,2.747l3.873-4.12A2.006,2.006,0,0,0,12.816,27.284Zm7.642,1.683q-4.709,5-9.4,10.007a2.007,2.007,0,0,0,2.964,2.706q4.694-4.988,9.367-9.966a2.009,2.009,0,0,0-2.933-2.747Zm6.589,12.6L24.1,44.705a2,2,0,0,0,2.954,2.706l2.861-3.036A2.009,2.009,0,0,0,27.046,41.566Z"/></svg>