<svg xmlns="http://www.w3.org/2000/svg" width="53" height="60.771" viewBox="0 0 53 60.771"><defs><style>.a{fill:#fff;}</style></defs><g transform="translate(-0.002 0.001)"><path class="a" d="M.129,52.11c-.7,3.873,1.6,7.676,5.109,8.45S12.2,58.8,12.9,54.927h1.086c3.512,0,6.386-3.169,6.386-7.042V28.379a1.283,1.283,0,1,0-2.554,0V35.7H11.176A7.125,7.125,0,0,1,5.11,32.252,8.774,8.774,0,0,1,6.9,20.844a1.611,1.611,0,0,0,.511-1.408,13.329,13.329,0,0,1-.255-2.746,14.172,14.172,0,0,1,6.13-11.9c6-3.943,13.73-1.76,17.37,4.788a1.175,1.175,0,0,0,1.469.634,6.385,6.385,0,0,1,1.66-.352C38.827,9.3,43.3,13.309,43.808,18.8a1.508,1.508,0,0,0,.766,1.2,8.2,8.2,0,0,1,4.534,7.535c0,4.507-3.321,8.169-7.408,8.169H35.06V28.379a1.283,1.283,0,1,0-2.554,0V47.885c0,3.873,2.874,7.042,6.386,7.042h1.086a6.911,6.911,0,0,0,5.173,5.7c3.576.775,7.025-1.76,7.727-5.7s-1.6-7.746-5.173-8.521-7.025,1.76-7.727,5.7H38.891a4.055,4.055,0,0,1-3.832-4.225V38.519H41.7a10.011,10.011,0,0,0,8.94-5.986c2.491-5.422.575-12.042-4.342-14.788-.958-6.2-5.811-10.774-11.559-10.774a9.2,9.2,0,0,0-2.427.282A14.811,14.811,0,0,0,19.861,0C11.5-.071,4.663,7.464,4.6,16.689a15.129,15.129,0,0,0,.192,2.394,11.457,11.457,0,0,0-3.576,8.45c0,6.056,4.47,10.985,9.962,10.985h6.641v9.366a4.055,4.055,0,0,1-3.832,4.225H12.9a6.692,6.692,0,0,0-6.386-5.774A6.641,6.641,0,0,0,.129,52.11ZM42.4,53.518h0a4.042,4.042,0,1,1,4.023,4.436A4.227,4.227,0,0,1,42.4,53.518ZM6.514,57.955a4.458,4.458,0,0,1,0-8.873,4.458,4.458,0,0,1,0,8.873Z"/><path class="a" d="M40.613,58.383a1.217,1.217,0,0,0,1.213-1.213V35.513a1.213,1.213,0,0,0-2.427,0V57.17A1.217,1.217,0,0,0,40.613,58.383Z" transform="translate(-14.175 -5.074)"/></g></svg>